<?xml version="1.0" encoding="utf-8"?>
<!-- Generator: Adobe Illustrator 16.0.0, SVG Export Plug-In . SVG Version: 6.00 Build 0)  -->
<!DOCTYPE svg PUBLIC "-//W3C//DTD SVG 1.1//EN" "http://www.w3.org/Graphics/SVG/1.1/DTD/svg11.dtd">
<svg version="1.1" id="Layer_1" xmlns="http://www.w3.org/2000/svg" xmlns:xlink="http://www.w3.org/1999/xlink" x="0px" y="0px"
	 width="372.633px" height="74.55px" viewBox="0 0 372.633 74.55" enable-background="new 0 0 372.633 74.55" xml:space="preserve">
<g>
	<path fill-rule="evenodd" clip-rule="evenodd" fill="#5EC8F8" d="M54.732,45.523c-0.524,3.409-1.301,6.464-2.991,9.206
		c-0.546,0.887-1.249,2.013-2.284,1.729c-1.108-0.305-0.953-1.673-0.94-2.682c0.062-4.711,0.186-9.407-1.288-13.998
		c-0.6-1.867-1.833-3.261-2.863-4.813c-0.741-1.115-1.707-0.946-2.657-0.23c-3.607,2.719-6.445,5.488-6.594,10.777
		c-0.179,6.35-1.571,12.704-4.167,18.649c-0.508,1.163-1.05,2.62-2.39,2.74c-1.434,0.128-1.806-1.521-2.653-2.425
		c-4.841-5.17-2.658-10.954-1.896-16.746c1.413-10.744,4.717-21.19,4.564-32.201c-0.068-4.905,3.434-8.166,7.721-10.009
		c3.637-1.562,7.018-0.374,9.814,2.412c0.481,0.48,1.07,0.854,1.619,1.264c4.547,3.401,4.907,6.217,1.555,10.806
		c-1.303,1.783-2.311,3.779-3.52,5.635c-0.476,0.729-0.49,1.219,0.286,1.679c4.088,2.418,5.893,6.489,7.764,10.612
		c0.288-3.441-0.438-6.771-0.941-10.119c-0.915-6.096,0.067-11.92,2.556-17.517c0.239-0.537,0.596-1.066,1.023-1.468
		c0.833-0.781,1.45-2.534,2.585-2.074c1.29,0.522,0.091,1.975-0.063,2.971c-0.333,2.151,1.61,2.803,2.499,4.123
		c0.428,0.634,0.877-0.039,1.117-0.465c1.312-2.338,3.293-4.249,4.11-6.924c0.571-1.865,4.553-3.606,7.021-3.354
		c4.919,0.504,9.717,5.984,10.038,11.91c0.442,8.175,0.621,16.359-1.023,24.464c-0.546,2.689-1.433,4.712-4.691,5.117
		c-3.546,0.439-6.525,3.344-10.197,3.129C63.538,47.47,58.956,48.522,54.732,45.523z M60.725,32.89
		c-0.224,1.813,0.256,3.548,0.803,5.094c1.739,4.914,5.992,6.521,10.545,3.258c5.101-3.654,5.267-9.495,5.371-15.006
		c0.067-3.548-0.778-7.108-0.845-10.708c-0.029-1.523,0.313-3.538-1.323-4.354c-1.688-0.841-3.262,0.487-4.759,1.268
		c-0.441,0.23-0.803,0.639-1.157,1.008C64.129,18.903,62.028,25.728,60.725,32.89z M35.511,24.896
		c0.203,0.121,0.406,0.243,0.61,0.364c2.648-2.951,5.043-6.102,7.002-9.566c0.589-1.042,0.796-2.242,0.675-3.46
		c-0.048-0.484,0.107-1.127-0.496-1.323c-0.623-0.202-0.84,0.382-1.094,0.815c-1.268,2.165-2.643,4.275-3.78,6.507
		C37.329,20.39,36.473,22.671,35.511,24.896z"/>
	<path fill-rule="evenodd" clip-rule="evenodd" fill="#5EC8F8" d="M148.318,39.94c0.242-6.644,0.893-12.826,1.966-18.952
		c0.703-4.009,0.743-8.135,2.283-12.005c0.602-1.515,1.434-1.845,2.942-1.635c2.108,0.294,4.14,0.379,5.88,2.026
		c0.688,0.65,1.013,1.147,1.189,1.988c0.241,1.154,0.443,2.357,1.455,3.406c0.966-1.347,0.692-2.937,1.119-4.318
		c0.521-1.685,1.008-3.356,3.27-3.259c2.791,0.119,4.044,1.229,4.397,3.73c0.803,5.704,0.386,11.409-0.011,17.106
		c-0.208,2.984-0.093,5.972-0.405,8.964c-0.285,2.729-1.221,5.116-2.386,7.512c-0.906,1.862-2.415,2.437-4.344,2.629
		c-1.869,0.186-2.28-1.148-2.908-2.34c-1.709-3.241-2.869-6.701-4.161-10.505c-1.014,3.357-0.904,6.571-1.14,9.714
		c-0.243,3.262-0.694,6.457-1.743,9.551c-0.963,2.841-3.132,3.36-5.24,1.226c-1.708-1.729-2.412-3.813-2.265-6.306
		c0.206-3.457-1.332-4.625-4.758-3.745c-6.086,1.564-10.214,4.748-11.448,11.536c-1.001,5.504-2.312,11.054-4.653,16.232
		c-0.429,0.951-0.68,2.298-2.228,2.014c-1.535-0.282-2.66-1.085-3.087-2.697c-0.428-1.615-0.201-3.204,0.025-4.812
		c1.448-10.28,0.081-20.498-0.836-30.707c-0.785-8.74-0.305-17.407,0.846-26.061c0.285-2.142,1.569-3.383,3.893-3.772
		c4.992-0.837,10.053-0.809,15.056-1.443c0.663-0.084,1.387-0.049,2.027,0.131c0.994,0.279,2.21,0.778,2.201,1.856
		c-0.01,1.192-1.407,0.996-2.248,1.147c-2.861,0.514-5.741,1.026-8.661,0.826c-1.635-0.112-2.35,0.556-2.493,2.126
		c-0.343,3.741-0.742,7.478-1.105,11.217c-0.125,1.287,0.735,1.521,1.642,1.203c2.473-0.865,5.101-0.243,7.595-0.942
		c1.627-0.456,2.934,0.201,3.237,1.963c0.301,1.746-1.267,1.877-2.31,1.944c-3.327,0.212-6.016,2.488-9.325,2.71
		c-0.893,0.059-0.915,0.884-0.882,1.592c0.158,3.434,1.039,6.754,1.635,10.117c0.247,1.393,1.262,1.012,2.209,0.694
		c2.75-0.925,5.524-1.776,8.27-2.713C144.67,38.259,146.347,38.512,148.318,39.94z"/>
	<path fill-rule="evenodd" clip-rule="evenodd" fill="#5EC8F8" d="M224.518,42.28c-0.374-11.312,0.915-18.702,2.578-26.04
		c0.875-3.859,2.557-7.17,5.996-9.503c3.514-2.382,7.491-2.43,10.879,0.212c1.28,0.998,2.581,1.97,3.865,2.962
		c3.101,2.396,3.438,6.048,1.075,9.249c-1.561,2.114-2.833,4.441-4.269,6.651c-0.592,0.912,0.09,1.153,0.662,1.552
		c9.236,6.432,11.349,15.937,11.178,26.335c-0.028,1.727-0.482,4.124-2.577,4.235c-2.056,0.108-3.088-1.982-3.365-3.895
		c-0.603-4.137-1.028-8.279-2.388-12.286c-1.007-2.966-2.452-5.62-4.387-8.044c-0.366-0.459-0.636-0.971-1.327-1.106
		c-2.542-0.501-7.161,3.649-6.952,6.247c0.589,7.301-0.225,14.477-2.117,21.529c-0.298,1.112-0.661,2.565-2.005,2.749
		c-1.448,0.198-1.834-1.273-2.427-2.281C224.866,53.935,224.915,46.171,224.518,42.28z M237.438,18.321
		c-1.224,2.057-1.952,4.409-2.898,6.631c3.32-2.89,6.13-6.041,7.891-9.979c0.396-0.886,0.443-1.819,0.377-2.761
		c-0.034-0.486,0.094-1.136-0.528-1.307c-0.63-0.173-0.848,0.416-1.062,0.865"/>
	<path fill-rule="evenodd" clip-rule="evenodd" fill="#5EC8F8" d="M297.887,47.141c-0.395-9.887,1.764-18.9,3.269-28
		c0.72-4.355,1.924-8.496,4.098-12.341c0.294-0.52,0.562-1.064,0.928-1.53c2.465-3.138,2.418-2.797,6.05-1.182
		c3.789,1.685,5.125,4.646,6.133,8.221c2.037,7.226,1.882,14.729,2.984,22.07c0.913,6.081,2.078,12.15,1.688,18.356
		c-0.049,0.77-0.018,1.546-0.109,2.308c-0.153,1.276-0.723,2.459-2.062,2.604c-1.269,0.138-1.457-1.208-1.911-2.096
		c-2.943-5.75-2.865-12.256-4.51-18.337c-0.651-2.411-1.574-3.58-4.068-3.909c-1.557-0.205-1.636,0.293-1.806,1.529
		c-0.553,4.002-0.749,8.024-0.629,12.044c0.131,4.405-2.397,7.6-4.73,10.816c-1.339,1.846-4.09,1.055-4.763-1.155
		C297.454,53.273,298.255,49.888,297.887,47.141z M313.24,29.341c-0.716-3.399-0.772-6.718-1.76-9.922
		c-0.845,1.876-0.654,3.922-1.272,5.78C309.354,27.759,310.168,29.152,313.24,29.341z"/>
	<path fill-rule="evenodd" clip-rule="evenodd" fill="#5EC8F8" d="M103.168,17.99c-1.767,0.498-3.526,1.027-5.304,1.486
		c-2.729,0.705-6.769-1.12-8.056-3.531c-0.554-1.039-0.122-1.719,0.741-2.077c4.26-1.771,8.448-3.389,13.339-2.866
		c4.971,0.531,7.012,4.158,9.456,7.485c0.854,1.163-0.159,2.279-0.871,3.234c-3.648,4.889-8.314,8.825-12.455,13.255
		c-0.567,0.606-1.683,1.021-1.258,1.975c0.464,1.042,1.5,0.386,2.267,0.196c4.438-1.094,8.895-1.772,13.46-0.847
		c0.41,0.083,0.857,0.041,1.281-0.004c3.177-0.34,4.731,1.267,4.283,4.441c-0.544,3.854-1.568,4.631-5.524,4.17
		c-1.688-0.197-3.356-0.398-4.943-1.144c-1.18-0.554-2.476-0.53-3.737,0.005c-0.703,0.298-1.461,0.634-2.202,0.652
		c-5.671,0.148-7.688,4.323-9.588,8.617c-1.52,3.435-2.277,7.184-4.292,10.415c-0.443,0.709-0.71,1.615-1.831,1.519
		c-1.112-0.096-1.55-0.883-1.987-1.766c-2.313-4.672-2.013-9.536-0.65-14.287c2.561-8.93,6.177-17.416,12.263-24.588
		c1.788-2.107,4.025-3.832,6.056-5.731C103.466,18.396,103.317,18.194,103.168,17.99z M98.059,37.941
		c-0.155-0.038-0.293-0.093-0.431-0.094c-0.056,0-0.113,0.116-0.17,0.179c0.124,0.082,0.241,0.206,0.374,0.227
		C97.888,38.263,97.979,38.056,98.059,37.941z"/>
	<path fill-rule="evenodd" clip-rule="evenodd" fill="#5EC8F8" d="M297.773,29.697c0.186,3.374-2.186,5.666-3.576,8.347
		c-1.292,2.491-2.82,4.868-4.348,7.229c-2.533,3.915-6.286,6.458-10.222,8.747c-1.595,0.928-3.204,0.804-4.879-0.07
		c-1.802-0.939-3.561-1.936-5.551-2.577c-2.005-0.645-1.517-2.603-0.573-3.786c0.908-1.139,1.077-2.231,1.073-3.527
		c-0.018-7.355-0.049-14.712-0.008-22.066c0.016-2.73,0.184-5.462,0.341-8.188c0.085-1.469-0.366-2.303-1.993-2.198
		c-0.568,0.036-1.262,0.108-1.5-0.652c-0.241-0.766,0.223-1.275,0.694-1.801c1.736-1.937,4.139-2.724,6.468-2.521
		c5.822,0.505,11.414,1.85,15.958,6.017c3.42,3.137,4.87,7.34,6.583,11.397C296.995,25.83,297.713,27.698,297.773,29.697z
		 M278.268,34.82c0.203,4.562,0.363,8.402,0.556,12.241c0.036,0.722-0.297,1.654,0.644,2.03c0.829,0.331,1.42-0.289,2.047-0.751
		c3.256-2.398,4.586-6.07,6.346-9.469c2.165-4.183,2.34-8.669,2.172-13.23c-0.142-3.868-2.639-6.29-5.155-8.756
		c-1.151-1.128-2.079-2.479-3.201-3.639c-0.619-0.639-1.56-0.911-2.369-0.485c-0.849,0.446-0.523,1.381-0.358,2.085
		c0.336,1.439,0.33,2.887,0.249,4.333C278.892,24.633,278.551,30.084,278.268,34.82z"/>
	<path fill-rule="evenodd" clip-rule="evenodd" fill="#5EC8F8" d="M326.147,57.95c0.379-4.822,0.735-9.646,1.145-14.464
		c0.414-4.866,1.131-9.687,2.915-14.264c0.798-2.049,0.42-3.867-0.691-5.562c-2.467-3.766-3.83-7.984-5.211-12.203
		c-0.505-1.54-0.91-3.1-1.795-4.513c-0.425-0.68-0.576-1.63-0.578-2.458c-0.005-2.246,0.969-2.913,3.143-2.591
		c3.031,0.449,5.562,2.02,8.194,3.389c0.658,0.342,0.967,0.72,0.466,1.379c-1.107,1.456-0.337,2.658,0.363,3.946
		c1.025-0.329,1.034-1.178,1.324-1.847c0.849-1.951,1.298-4.036,2.349-5.938c1.778-3.223,1.67-3.282,5.082-2.184
		c4.778,1.539,4.812,1.55,3.343,6.419c-1.702,5.644-3.577,11.237-5.173,16.911c-0.944,3.355-2.934,6.097-4.593,9.046
		c-2.649,4.711-3.169,10.018-4.262,15.177c-0.807,3.804-3.019,6.932-5.174,10.042C326.712,58.142,326.43,58.046,326.147,57.95z"/>
	<path fill-rule="evenodd" clip-rule="evenodd" fill="#5EC8F8" d="M197.708,35.355c0.322-7.524,1.799-14.896,1.625-22.443
		c-0.111-4.852,2.001-6.152,7.015-6.986c5.693-0.946,11.191-1.191,16.473,1.613c0.617,0.327,1.265,0.498,1.456,1.279
		c0.21,0.854,1.522,1.384,0.853,2.473c-0.763,1.241-1.9,0.459-2.791,0.24c-3.699-0.912-7.396-1.258-11.173-0.554
		c-3.029,0.565-3.804,1.605-3.624,4.604c0.145,2.389,0.101,4.792,0.053,7.187c-0.03,1.519,0.384,2.202,1.901,1.302
		c1.834-1.09,3.468-0.79,5.289,0.242c1.139,0.645,2.156,1.264,2.139,2.546c-0.019,1.32-1.131,2.032-2.281,2.521
		c-0.786,0.334-1.606,0.593-2.378,0.955c-4.274,2.008-5.071,3.589-4.237,8.261c0.359,2.018,0.565,4.06,0.85,6.085
		c0.596,4.245-1.855,7.104-4.112,10.085c-0.494,0.653-1.255,1.447-2.131,1.163c-0.73-0.237-0.833-1.297-0.858-1.991
		c-0.099-2.733-1.736-4.991-2.215-7.599c-0.118-0.646-0.689-1.217-0.776-1.859C198.371,41.432,198.055,38.372,197.708,35.355z"/>
	<path fill-rule="evenodd" clip-rule="evenodd" fill="#5EC8F8" d="M0.058,19.282c0.196-2.625-0.079-5.356,0.404-8.096
		c0.485-2.751,2.125-4.494,4.584-4.931c6.312-1.119,12.666-2.098,18.772,1.249c1.291,0.708,1.949,1.801,2.27,2.819
		c0.546,1.734-0.867,1.65-2.054,1.367c-3.968-0.947-7.98-1.022-11.977-0.361c-3.346,0.555-3.684,1.186-3.46,4.607
		c0.173,2.645,0.023,5.302,0.488,7.939c0.295,1.67,1.095,2.406,2.793,2.175c1.438-0.196,2.881-0.361,4.326-0.497
		c2.333-0.221,4.339,0.839,5.428,2.629c1.184,1.945-0.357,3.77-1.572,5.312c-1.365,1.734-2.963,3.165-5.474,2.307
		c-0.241-0.083-0.504-0.1-0.752-0.165c-3.523-0.925-4.641-0.205-4.986,3.615c-0.23,2.552-0.101,5.136-0.166,7.704
		c-0.025,1.004,0.193,2.293-0.847,2.768c-0.83,0.378-1.365-0.814-2.073-1.239C3.722,47.263,3.116,45.313,2.58,43
		c-1.472-6.354-1.733-12.827-2.497-19.248C-0.087,22.315,0.058,20.842,0.058,19.282z"/>
	<path fill-rule="evenodd" clip-rule="evenodd" fill="#5EC8F8" d="M363.425,6.097c2.718,0.019,8.365,3.644,9.07,5.52
		c0.378,1.005-0.073,1.875-0.732,2.553c-0.636,0.652-1.439,0.464-2.095-0.071c-1.937-1.585-3.318-0.775-4.794,0.824
		c-1.489,1.614-3.557,2.604-4.829,4.527c-1.692,2.559-1.498,3.928,0.827,5.907c2.104,1.79,4.928,2.818,5.915,5.831
		c1.004,3.064-1.215,5.186-1.98,7.727c-1.553,5.158-3.146,10.306-4.746,15.449c-0.381,1.225-0.708,2.501-1.321,3.609
		c-0.834,1.507-1.486,3.784-3.719,3.25c-2.173-0.521-2.967-2.652-3.416-4.738c-0.139-0.646,0.043-1.199,0.676-1.506
		c4.229-2.045,4.337-6.32,5.097-10.028c0.937-4.567,1.191-9.271,1.873-13.896c0.209-1.418-0.646-2.025-1.459-2.724
		c-2.46-2.116-5.437-3.522-7.732-5.914c-2.378-2.477-3.083-6.269-0.753-8.84C353.192,9.292,358.129,6.748,363.425,6.097z"/>
	<path fill-rule="evenodd" clip-rule="evenodd" fill="#5EC8F8" d="M264.708,28.817c0.371,6.732,0.121,12.68-0.911,18.595
		c-0.372,2.129-1.191,4.083-1.984,6.058c-0.4,0.996-0.994,1.927-2.239,1.717c-1.21-0.204-0.793-1.352-0.927-2.116
		c-2.205-12.545-3.937-25.134-4.12-37.909c-0.032-2.268-0.525-4.559-0.385-6.865c0.137-2.23,1.512-3.323,4.175-3.367
		c2.145-0.035,3.945-0.099,4.144,3.04c0.295,4.674,1.622,9.236,2.13,13.917C264.869,24.463,264.631,27.009,264.708,28.817z"/>
	<path fill-rule="evenodd" clip-rule="evenodd" fill="#FEFEFE" d="M311.48,19.419c0.987,3.204,1.044,6.522,1.76,9.922"/>
	<path fill-rule="evenodd" clip-rule="evenodd" fill="#FEFEFE" d="M98.059,37.941c-0.08,0.114-0.17,0.321-0.228,0.312
		c-0.133-0.021-0.25-0.145-0.374-0.227c0.057-0.062,0.114-0.179,0.17-0.179C97.766,37.849,97.903,37.903,98.059,37.941z"/>
</g>
</svg>
